<svg xmlns="http://www.w3.org/2000/svg" viewBox="281 206 296 296" width="296" height="296" role="img" aria-label="op eigen erf logo">
<g transform="translate(0,724) scale(0.1,-0.1)" fill="#0A1B2B" stroke="none"><path d="M4130 5090 c-545 -76 -968 -425 -1128 -930 -82 -261 -77 -542 15
-790 133 -359 402 -632 759 -770 40 -15 76 -25 78 -22 2 4 4 64 4 135 0 128 0
128 -62 156 -378 171 -629 605 -586 1014 49 466 387 831 860 929 141 29 386
21 520 -17 303 -86 544 -285 684 -563 27 -53 27 -53 166 -51 78 1 140 6 140
11 0 18 -63 153 -103 223 -202 350 -531 584 -928 660 -101 19 -329 27 -419 15z"/>
<path d="M6740 3565 c0 -1118 2 -1265 15 -1265 13 0 15 147 15 1265 0 1118 -2
1265 -15 1265 -13 0 -15 -147 -15 -1265z"/>
<path d="M7775 4312 c-282 -97 -405 -405 -269 -673 122 -242 476 -324 694
-160 314 236 235 727 -134 836 -70 21 -227 19 -291 -3z m211 -113 c264 -48
363 -397 164 -583 -80 -75 -121 -91 -225 -90 -101 0 -151 18 -223 80 -132 113
-145 351 -26 483 57 63 104 92 174 107 71 16 67 16 136 3z"/>
<path d="M8720 3868 c0 -250 2 -456 4 -459 2 -2 34 -2 70 -1 66 4 66 4 68 160
l3 157 150 5 c139 5 155 8 207 33 97 48 148 128 156 245 6 91 -14 148 -75 213
-78 84 -114 93 -365 97 l-217 4 -1 -454z m431 306 c96 -56 116 -183 43 -264
-44 -49 -101 -63 -234 -58 l-95 3 -3 160 c-1 87 0 166 3 173 9 24 242 12 286
-14z"/>
<path d="M17540 3863 l0 -458 65 3 65 4 0 324 c0 178 4 324 8 324 5 0 19 -15
32 -32 31 -42 333 -473 388 -555 43 -63 43 -63 112 -63 l70 0 0 455 0 455 -65
0 -65 0 -1 -287 c0 -159 -4 -308 -7 -333 -8 -50 12 -76 -342 438 -125 182
-125 182 -192 182 l-68 0 0 -457z"/>
<path d="M18650 3865 l0 -455 275 0 c275 0 275 0 275 60 0 60 0 60 -205 60
l-205 0 0 395 0 395 -70 0 -70 0 0 -455z"/>
<path d="M4258 3733 l-128 -128 0 -508 c0 -279 3 -507 8 -507 4 1 35 36 70 78
34 42 87 106 117 142 30 36 57 79 60 95 3 17 4 238 3 493 l-3 462 -127 -127z"/>
<path d="M17154 3560 c-106 -42 -40 -195 68 -158 64 22 68 122 7 153 -31 17
-44 18 -75 5z"/>
<path d="M7760 2871 c0 -6 14 -11 30 -11 30 0 30 0 30 -95 0 -83 -3 -98 -21
-116 -21 -21 -29 -21 -89 -3 -25 7 -25 7 -6 -14 27 -31 85 -30 116 2 21 23 23
34 22 133 0 108 0 108 -41 111 -24 2 -41 -1 -41 -7z"/>
<path d="M8069 2857 c-41 -27 -64 -90 -54 -144 19 -103 163 -139 234 -57 36
40 43 112 16 163 -30 60 -134 80 -196 38z m151 -24 c80 -71 28 -203 -79 -203
-40 0 -88 42 -102 89 -31 105 100 187 181 114z"/>
<path d="M8460 2776 c0 -121 3 -132 41 -151 61 -32 139 -9 158 46 18 51 15
209 -4 209 -12 0 -15 -18 -15 -100 0 -94 -2 -103 -25 -125 -15 -16 -36 -25
-55 -25 -19 0 -40 9 -55 25 -23 22 -25 31 -25 125 0 60 -4 100 -10 100 -6 0
-10 -41 -10 -104z"/>
<path d="M8830 2878 c0 -2 18 -61 39 -133 49 -170 62 -174 106 -28 17 56 34
105 37 108 4 4 22 -42 41 -102 49 -149 59 -147 109 21 36 119 41 154 19 130
-5 -5 -24 -55 -42 -112 -17 -57 -35 -99 -38 -95 -4 4 -22 54 -40 111 -19 59
-38 102 -45 102 -7 0 -29 -47 -51 -111 -22 -65 -41 -106 -45 -98 -4 8 -19 58
-35 112 -17 61 -33 97 -41 97 -8 0 -14 -1 -14 -2z"/>
<path d="M9580 2745 c0 -83 4 -135 10 -135 6 0 10 22 10 49 0 49 0 49 54 53
79 7 106 28 106 83 0 62 -31 85 -116 85 -64 0 -64 0 -64 -135z m140 95 c47
-47 2 -114 -74 -108 -41 3 -41 3 -44 52 -5 69 0 76 53 76 32 0 51 -6 65 -20z"/>
<path d="M9940 2745 l0 -135 80 0 c97 0 107 18 13 22 -68 3 -68 3 -71 126 -4
169 -22 159 -22 -13z"/>
<path d="M10270 2745 c0 -135 0 -135 79 -135 102 0 117 18 19 22 -73 3 -73 3
-73 53 0 50 0 50 58 53 31 2 57 7 57 12 0 5 -26 10 -57 12 -58 3 -58 3 -61 51
-3 47 -3 47 67 47 41 0 71 4 71 10 0 6 -33 10 -80 10 l-80 0 0 -135z"/>
<path d="M10612 2748 c2 -94 7 -133 16 -136 8 -2 12 9 12 36 0 38 32 97 50 90
5 -2 29 -31 54 -65 40 -55 66 -77 66 -57 0 8 -59 95 -83 121 -20 22 -20 22 33
83 33 38 46 60 37 60 -9 0 -44 -31 -78 -70 -35 -38 -67 -70 -71 -70 -4 0 -8
32 -8 70 0 56 -3 70 -15 70 -13 0 -15 -19 -13 -132z"/>
<path d="M11445 2871 c-3 -5 9 -11 27 -13 33 -3 33 -3 33 -94 0 -120 -32 -161
-95 -122 -26 16 -40 0 -16 -18 28 -20 80 -17 107 5 22 18 24 27 27 135 4 116
4 116 -37 116 -22 0 -42 -4 -46 -9z"/>
<path d="M11759 2863 c-81 -50 -81 -196 1 -238 66 -34 157 -8 192 56 20 36 19
100 -3 140 -28 53 -134 77 -190 42z m124 -14 c64 -33 79 -125 30 -179 -52 -58
-157 -44 -183 26 -40 104 58 202 153 153z"/>
<path d="M12140 2773 c1 -69 5 -114 13 -124 37 -49 124 -54 168 -10 28 29 29
32 29 135 0 78 -3 106 -12 106 -10 0 -13 -28 -14 -102 -1 -97 -2 -103 -28
-125 -33 -28 -76 -30 -107 -4 -22 18 -24 28 -27 125 -5 139 -22 137 -22 -1z"/>
<path d="M12554 2745 c52 -173 61 -175 107 -25 19 61 36 110 40 110 3 0 21
-49 39 -110 26 -83 38 -110 51 -110 9 0 20 10 23 23 3 12 21 73 40 135 23 77
30 112 22 112 -7 0 -28 -48 -47 -110 -19 -60 -36 -110 -39 -110 -3 0 -20 50
-39 111 -25 80 -39 109 -50 107 -9 -2 -29 -46 -51 -113 -43 -125 -37 -127 -85
29 -15 51 -32 86 -39 86 -10 0 -2 -38 28 -135z"/>
<path d="M13270 2745 c0 -83 4 -135 10 -135 6 0 10 42 10 106 0 58 3 103 8
101 4 -3 27 -44 51 -91 24 -47 49 -86 55 -86 7 0 32 41 56 90 42 85 63 112 59
73 -5 -56 2 -193 11 -193 6 0 10 52 10 135 0 171 -10 175 -80 35 -28 -55 -54
-100 -58 -100 -4 0 -30 45 -57 100 -27 55 -55 100 -62 100 -10 0 -13 -31 -13
-135z"/>
<path d="M13730 2745 l0 -135 85 0 c50 0 85 4 85 10 0 6 -30 10 -70 10 -77 0
-86 9 -78 76 3 27 6 29 53 32 78 4 86 16 15 22 -65 5 -65 5 -65 50 0 45 0 45
73 48 101 4 91 22 -13 22 l-85 0 0 -135z"/>
<path d="M14080 2745 c0 -83 4 -135 10 -135 6 0 10 42 10 106 0 78 3 105 12
102 7 -3 44 -50 83 -106 38 -56 76 -102 83 -102 9 0 12 34 12 135 0 83 -4 135
-10 135 -6 0 -10 -42 -10 -105 0 -58 -3 -105 -7 -105 -5 1 -41 48 -82 105 -41
58 -80 105 -87 105 -11 0 -14 -28 -14 -135z"/>
<path d="M14495 2855 c-46 -45 -28 -86 47 -110 49 -16 88 -45 88 -66 0 -19
-42 -49 -69 -49 -15 0 -40 9 -54 20 -17 14 -28 17 -32 9 -13 -19 22 -42 72
-46 59 -6 103 22 103 65 0 41 -14 55 -82 82 -66 26 -84 53 -58 86 16 18 70 18
97 -1 13 -9 24 -11 28 -6 9 16 -37 41 -78 41 -27 0 -45 -7 -62 -25z"/>
<path d="M14830 2755 c0 -69 -1 -128 -2 -132 -4 -11 141 -16 161 -6 10 4 -13
10 -59 13 -75 5 -75 5 -78 58 -3 52 -3 52 57 52 34 0 61 4 61 10 0 6 -27 10
-60 10 -60 0 -60 0 -60 50 0 50 0 50 70 50 40 0 70 4 70 10 0 6 -33 10 -80 10
-80 0 -80 0 -80 -125z"/>
<path d="M15170 2746 c0 -114 2 -136 15 -136 12 0 15 18 15 105 0 58 3 105 8
105 4 0 40 -48 81 -105 40 -58 79 -105 87 -105 19 0 16 261 -3 267 -9 3 -13
-24 -15 -104 l-3 -108 -76 105 c-105 146 -109 145 -109 -24z"/>
<path d="M16030 2871 c0 -6 15 -11 33 -13 32 -3 32 -3 31 -95 -1 -75 -4 -97
-19 -113 -22 -24 -52 -26 -82 -5 -13 9 -24 11 -28 6 -9 -15 36 -41 71 -41 66
0 79 24 82 154 4 116 4 116 -42 116 -25 0 -46 -4 -46 -9z"/>
<path d="M16364 2870 c-29 -11 -74 -67 -76 -93 -5 -77 18 -128 68 -152 97 -46
204 17 204 120 0 98 -102 163 -196 125z m115 -24 c33 -17 51 -54 51 -104 0
-124 -175 -152 -211 -34 -31 104 65 187 160 138z"/>
<path d="M16730 2774 c0 -103 1 -106 29 -135 39 -39 106 -41 148 -5 27 23 28
28 31 135 3 75 0 111 -7 111 -6 0 -12 -21 -12 -50 -1 -27 -2 -73 -3 -101 -1
-58 -36 -99 -84 -99 -61 1 -82 42 -82 159 0 54 -4 91 -10 91 -6 0 -10 -42 -10
-106z"/>
<path d="M17131 2783 c16 -54 34 -115 40 -136 17 -65 38 -45 76 77 19 60 38
105 42 100 4 -5 22 -55 40 -111 19 -62 37 -103 45 -103 8 0 27 44 49 113 53
167 51 160 36 155 -8 -3 -29 -53 -48 -112 -19 -59 -37 -103 -41 -99 -4 4 -21
54 -39 111 -18 58 -37 102 -44 102 -7 0 -27 -45 -46 -102 -18 -57 -36 -107
-40 -111 -4 -4 -23 42 -41 103 -19 63 -38 110 -46 110 -8 0 -3 -29 17 -97z"/>
<path d="M17850 2745 l0 -135 85 0 c50 0 85 4 85 10 0 6 -30 10 -70 10 -70 0
-70 0 -70 55 0 55 0 55 60 55 33 0 60 4 60 10 0 6 -27 10 -60 10 -60 0 -60 0
-60 50 0 50 0 50 70 50 40 0 70 4 70 10 0 6 -35 10 -85 10 l-85 0 0 -135z"/>
<path d="M18200 2745 c0 -78 4 -135 9 -135 6 0 11 24 13 53 3 50 4 52 34 55
27 3 35 -3 69 -52 21 -31 44 -56 52 -56 19 0 17 4 -22 59 -35 48 -35 50 -14
56 28 9 52 66 40 99 -16 40 -49 56 -118 56 -63 0 -63 0 -63 -135z m140 95 c46
-46 1 -113 -73 -108 -42 3 -42 3 -45 66 -3 62 -3 62 48 62 37 0 55 -5 70 -20z"/>
<path d="M18570 2744 c0 -103 3 -135 12 -132 8 3 11 20 10 46 -6 72 2 82 64
82 30 0 54 5 54 10 0 6 -24 10 -54 10 -54 0 -54 0 -61 40 -9 55 -3 60 76 60
39 0 69 4 69 10 0 6 -35 10 -85 10 l-85 0 0 -136z"/>
<path d="M10980 2635 c-10 -12 -9 -16 5 -21 19 -8 40 9 31 25 -10 15 -21 14
-36 -4z"/>
<path d="M15565 2641 c-8 -15 3 -31 21 -31 9 0 14 7 12 17 -4 20 -24 28 -33
14z"/>
<path d="M18874 2639 c-10 -17 13 -36 27 -22 12 12 4 33 -11 33 -5 0 -12 -5
-16 -11z"/></g>
<g transform="translate(0,724) scale(0.1,-0.1)" fill="#718D69" stroke="none"><path d="M4143 5093 c9 -2 25 -2 35 0 9 3 1 5 -18 5 -19 0 -27 -2 -17 -5z"/>
<path d="M4403 5093 c9 -2 25 -2 35 0 9 3 1 5 -18 5 -19 0 -27 -2 -17 -5z"/>
<path d="M4068 5083 c6 -2 18 -2 25 0 6 3 1 5 -13 5 -14 0 -19 -2 -12 -5z"/>
<path d="M4498 5083 c6 -2 18 -2 25 0 6 3 1 5 -13 5 -14 0 -19 -2 -12 -5z"/>
<path d="M4830 4990 c8 -5 20 -10 25 -10 6 0 3 5 -5 10 -8 5 -19 10 -25 10 -5
0 -3 -5 5 -10z"/>
<path d="M6735 4828 c-3 -7 -4 -580 -3 -1273 l3 -1260 3 1267 c2 1197 3 1267
20 1271 16 4 16 5 -1 6 -10 0 -20 -5 -22 -11z"/>
<path d="M4153 4823 c9 -2 23 -2 30 0 6 3 -1 5 -18 5 -16 0 -22 -2 -12 -5z"/>
<path d="M4403 4823 c9 -2 25 -2 35 0 9 3 1 5 -18 5 -19 0 -27 -2 -17 -5z"/>
<path d="M4478 4813 c6 -2 18 -2 25 0 6 3 1 5 -13 5 -14 0 -19 -2 -12 -5z"/>
<path d="M3409 4783 c-24 -28 -24 -28 4 -4 25 23 32 31 24 31 -2 0 -14 -12
-28 -27z"/>
<path d="M5175 4780 c10 -11 20 -20 23 -20 3 0 -3 9 -13 20 -10 11 -20 20 -23
20 -3 0 3 -9 13 -20z"/>
<path d="M4721 4746 c10 -9 129 -66 129 -61 0 5 -116 65 -126 65 -4 0 -5 -2
-3 -4z"/>
<path d="M3314 4698 c-29 -33 -29 -33 4 -4 17 17 32 31 32 33 0 8 -8 1 -36
-29z"/>
<path d="M3764 4704 c-18 -14 -18 -15 4 -4 12 6 22 13 22 15 0 8 -5 6 -26 -11z"/>
<path d="M3694 4664 c-18 -14 -18 -15 4 -4 12 6 22 13 22 15 0 8 -5 6 -26 -11z"/>
<path d="M4860 4676 c0 -3 9 -10 20 -16 11 -6 20 -8 20 -6 0 3 -9 10 -20 16
-11 6 -20 8 -20 6z"/>
<path d="M5325 4630 c10 -11 20 -20 23 -20 3 0 -3 9 -13 20 -10 11 -20 20 -23
20 -3 0 3 -9 13 -20z"/>
<path d="M5000 4575 c13 -14 26 -25 28 -25 3 0 -5 11 -18 25 -13 14 -26 25
-28 25 -3 0 5 -11 18 -25z"/>
<path d="M3510 4515 c-41 -41 -72 -75 -69 -75 2 0 38 34 79 75 41 41 72 75 69
75 -2 0 -38 -34 -79 -75z"/>
<path d="M3130 4460 c-6 -11 -8 -20 -6 -20 3 0 10 9 16 20 6 11 8 20 6 20 -3
0 -10 -9 -16 -20z"/>
<path d="M5125 4450 c10 -11 20 -20 23 -20 3 0 -3 9 -13 20 -10 11 -20 20 -23
20 -3 0 3 -9 13 -20z"/>
<path d="M7883 4333 c26 -2 67 -2 90 0 23 2 2 3 -48 3 -49 0 -68 -1 -42 -3z"/>
<path d="M11505 4326 c-297 -73 -444 -388 -315 -674 37 -80 133 -178 210 -214
188 -88 422 -51 567 89 50 48 50 48 46 211 l-5 162 -199 0 c-198 0 -198 0
-197 -65 1 -64 1 -64 127 -67 126 -3 126 -3 129 -66 4 -78 -8 -98 -75 -134
-94 -52 -230 -55 -322 -9 -207 106 -239 404 -61 564 115 103 299 103 419 1 42
-37 42 -37 86 12 24 27 44 52 45 56 0 13 -86 79 -135 102 -92 44 -220 57 -320
32z"/>
<path d="M8813 4323 c53 -2 141 -2 195 0 53 1 9 3 -98 3 -107 0 -151 -2 -97
-3z"/>
<path d="M17535 4318 c-3 -7 -4 -218 -3 -468 l3 -455 3 462 2 462 73 4 72 3
-73 2 c-50 1 -74 -2 -77 -10z"/>
<path d="M18145 4318 c-3 -7 -4 -144 -2 -303 l2 -290 3 298 2 297 65 0 65 0 0
-456 0 -456 -74 4 c-41 2 -72 0 -69 -4 2 -5 38 -8 79 -8 l74 0 -2 463 -3 462
-68 3 c-48 2 -69 -1 -72 -10z"/>
<path d="M18647 4323 c-3 -5 18 -7 46 -5 92 5 104 9 30 11 -39 0 -74 -2 -76
-6z"/>
<path d="M9128 4313 c6 -2 18 -2 25 0 6 3 1 5 -13 5 -14 0 -19 -2 -12 -5z"/>
<path d="M9730 3860 l0 -460 288 2 287 3 3 62 c3 63 3 63 -215 65 l-218 3 -3
132 -3 133 188 2 c188 3 188 3 191 65 3 63 3 63 -185 65 l-188 3 -3 128 -3
127 221 0 220 0 0 65 0 65 -290 0 -290 0 0 -460z"/>
<path d="M10672 3863 l3 -458 73 -3 72 -3 0 461 0 460 -75 0 -75 0 2 -457z"/>
<path d="M12380 3860 l0 -460 288 2 287 3 3 62 c3 63 3 63 -215 65 l-218 3 0
130 0 130 183 3 c182 2 182 2 182 67 0 65 0 65 -179 65 -202 0 -191 -6 -191
115 0 152 -11 144 224 147 211 3 211 3 213 66 l1 62 -289 0 -289 0 0 -460z"/>
<path d="M13310 3860 l0 -460 70 0 70 0 2 330 3 330 76 -107 c42 -60 144 -208
228 -330 152 -223 152 -223 222 -223 l69 0 0 460 0 460 -70 0 -70 0 -2 -332
-3 -332 -195 285 c-107 156 -208 305 -225 331 -30 48 -30 48 -102 48 l-73 0 0
-460z"/>
<path d="M14430 3860 l0 -460 288 2 287 3 3 62 c3 63 3 63 -215 65 l-218 3 -3
132 -3 133 188 2 c188 3 188 3 191 65 3 63 3 63 -185 65 l-188 3 -3 127 -3
128 218 2 c218 3 218 3 221 66 l3 62 -291 0 -290 0 0 -460z"/>
<path d="M15370 3860 l0 -461 73 3 c72 3 72 3 75 166 l2 163 87 -3 c87 -3 87
-3 192 -165 105 -163 105 -163 188 -163 46 0 83 3 83 6 0 3 -47 76 -103 162
-57 87 -107 162 -111 169 -4 8 5 18 27 27 176 73 218 343 75 472 -81 73 -106
79 -360 82 l-228 3 0 -461z m439 310 c54 -27 84 -79 84 -144 0 -128 -74 -175
-275 -176 l-98 0 0 170 0 170 125 0 c105 0 132 -3 164 -20z"/>
<path d="M16410 3860 l0 -461 72 3 72 3 0 185 1 185 183 3 c182 2 182 2 182
67 0 65 0 65 -182 67 l-183 3 -3 115 c-4 178 -28 160 218 160 210 0 210 0 210
65 l0 65 -285 0 -285 0 0 -460z"/>
<path d="M8121 4296 c2 -2 15 -9 29 -15 24 -11 24 -11 6 3 -16 13 -49 24 -35
12z"/>
<path d="M9295 4230 c21 -22 41 -40 44 -40 3 0 -13 18 -34 40 -21 22 -41 40
-44 40 -3 0 13 -18 34 -40z"/>
<path d="M7913 4203 c9 -2 23 -2 30 0 6 3 -1 5 -18 5 -16 0 -22 -2 -12 -5z"/>
<path d="M8864 4187 c-2 -7 -3 -85 -2 -172 l3 -160 113 -1 112 0 -110 3 -110
4 0 164 0 164 103 4 102 3 -103 2 c-76 1 -104 -1 -108 -11z"/>
<path d="M7790 4180 c-8 -5 -10 -10 -5 -10 6 0 17 5 25 10 8 5 11 10 5 10 -5
0 -17 -5 -25 -10z"/>
<path d="M8035 4180 c27 -12 43 -12 25 0 -8 5 -22 9 -30 9 -10 0 -8 -3 5 -9z"/>
<path d="M9180 4145 c13 -14 26 -25 28 -25 3 0 -5 11 -18 25 -13 14 -26 25
-28 25 -3 0 5 -11 18 -25z"/>
<path d="M8362 4055 c0 -5 6 -26 13 -45 7 -19 14 -28 14 -20 0 8 -6 29 -14 45
-7 17 -13 26 -13 20z"/>
<path d="M9233 4020 c0 -25 2 -35 4 -22 2 12 2 32 0 45 -2 12 -4 2 -4 -23z"/>
<path d="M9383 4025 c0 -22 2 -30 4 -17 2 12 2 30 0 40 -3 9 -5 -1 -4 -23z"/>
<path d="M17670 3735 l0 -324 -62 -4 c-63 -3 -63 -3 5 -5 l67 -2 0 330 c0 182
-2 330 -5 330 -3 0 -5 -146 -5 -325z"/>
<path d="M2952 3980 c0 -14 2 -19 5 -12 2 6 2 18 0 25 -3 6 -5 1 -5 -13z"/>
<path d="M8392 3945 c0 -16 2 -22 5 -12 2 9 2 23 0 30 -3 6 -5 -1 -5 -18z"/>
<path d="M18644 3865 c0 -55 1 -76 3 -47 2 29 2 74 0 100 -2 26 -3 2 -3 -53z"/>
<path d="M8242 3930 c0 -14 2 -19 5 -12 2 6 2 18 0 25 -3 6 -5 1 -5 -13z"/>
<path d="M3212 3915 c0 -16 2 -22 5 -12 2 9 2 23 0 30 -3 6 -5 -1 -5 -18z"/>
<path d="M2942 3900 c0 -19 2 -27 5 -17 2 9 2 25 0 35 -3 9 -5 1 -5 -18z"/>
<path d="M7593 3865 c0 -27 2 -38 4 -22 2 15 2 37 0 50 -2 12 -4 0 -4 -28z"/>
<path d="M8253 3865 c0 -22 2 -30 4 -17 2 12 2 30 0 40 -3 9 -5 -1 -4 -23z"/>
<path d="M4255 3738 l-130 -133 133 130 132 130 0 -133 0 -132 620 0 620 0 0
135 0 135 -623 0 -622 0 -130 -132z"/>
<path d="M3202 3800 c0 -19 2 -27 5 -17 2 9 2 25 0 35 -3 9 -5 1 -5 -18z"/>
<path d="M8242 3790 c0 -14 2 -19 5 -12 2 6 2 18 0 25 -3 6 -5 1 -5 -13z"/>
<path d="M8392 3790 c0 -14 2 -19 5 -12 2 6 2 18 0 25 -3 6 -5 1 -5 -13z"/>
<path d="M8867 3723 c-4 -3 -7 -75 -7 -159 0 -153 0 -153 -62 -157 -63 -3 -63
-3 5 -5 67 -2 67 -2 67 158 l0 159 118 4 117 3 -116 2 c-64 1 -119 -1 -122 -5z"/>
<path d="M2943 3665 c0 -22 2 -30 4 -17 2 12 2 30 0 40 -3 9 -5 -1 -4 -23z"/>
<path d="M3212 3675 c0 -16 2 -22 5 -12 2 9 2 23 0 30 -3 6 -5 -1 -5 -18z"/>
<path d="M8180 3658 c-15 -21 -17 -28 -6 -19 16 13 41 51 33 51 -2 0 -14 -15
-27 -32z"/>
<path d="M8342 3645 c-12 -25 -20 -45 -17 -45 7 0 47 81 43 86 -3 2 -14 -17
-26 -41z"/>
<path d="M7660 3647 c0 -2 15 -16 33 -33 32 -29 32 -29 3 4 -28 30 -36 37 -36
29z"/>
<path d="M2952 3590 c0 -14 2 -19 5 -12 2 6 2 18 0 25 -3 6 -5 1 -5 -13z"/>
<path d="M18643 3565 c0 -22 2 -30 4 -17 2 12 2 30 0 40 -3 9 -5 -1 -4 -23z"/>
<path d="M8289 3563 c-24 -28 -24 -28 4 -4 15 14 27 26 27 28 0 8 -8 1 -31
-24z"/>
<path d="M17115 3540 c-10 -11 -16 -22 -14 -24 2 -2 12 7 22 20 22 29 17 32
-8 4z"/>
<path d="M18873 3533 c48 -2 126 -2 175 0 48 1 8 3 -88 3 -96 0 -136 -2 -87
-3z"/>
<path d="M7898 3523 c17 -2 47 -2 65 0 17 2 3 4 -33 4 -36 0 -50 -2 -32 -4z"/>
<path d="M17272 3480 c0 -19 2 -27 5 -17 2 9 2 25 0 35 -3 9 -5 1 -5 -18z"/>
<path d="M17092 3480 c0 -14 2 -19 5 -12 2 6 2 18 0 25 -3 6 -5 1 -5 -13z"/>
<path d="M18644 3440 c1 -35 1 -35 281 -35 l280 0 -277 2 c-277 3 -277 3 -281
36 -4 32 -4 32 -3 -3z"/>
<path d="M17100 3443 c0 -5 10 -18 23 -29 22 -19 22 -19 2 6 -11 14 -21 27
-22 29 -2 2 -3 0 -3 -6z"/>
<path d="M7838 3393 c6 -2 18 -2 25 0 6 3 1 5 -13 5 -14 0 -19 -2 -12 -5z"/>
<path d="M7988 3393 c6 -2 18 -2 25 0 6 3 1 5 -13 5 -14 0 -19 -2 -12 -5z"/>
<path d="M3100 3170 c6 -11 13 -20 16 -20 2 0 0 9 -6 20 -6 11 -13 20 -16 20
-2 0 0 -9 6 -20z"/>
<path d="M3505 3070 c27 -27 51 -50 54 -50 3 0 -17 23 -44 50 -27 28 -51 50
-54 50 -3 0 17 -22 44 -50z"/>
<path d="M3215 3000 c10 -11 20 -20 23 -20 3 0 -3 9 -13 20 -10 11 -20 20 -23
20 -3 0 3 -9 13 -20z"/>
<path d="M3315 2890 c38 -38 72 -70 74 -70 3 0 -26 32 -64 70 -38 39 -72 70
-74 70 -3 0 26 -31 64 -70z"/>
<path d="M3710 2915 c0 -7 101 -57 106 -53 2 2 -21 16 -51 31 -30 15 -55 25
-55 22z"/>
<path d="M4382 2890 c-2 -8 -22 -38 -45 -66 -113 -137 -192 -229 -199 -232 -4
-2 -8 -69 -8 -148 l0 -144 750 0 750 0 0 135 0 135 -620 0 -620 0 -3 168 c-1
92 -4 160 -5 152z"/>
<path d="M7755 2880 c-10 -16 4 -30 30 -30 24 0 24 -2 28 -92 3 -93 3 -93 5 5
2 97 2 97 -28 97 -16 0 -30 5 -30 11 0 7 17 10 44 8 24 -2 42 -1 39 4 -6 11
-81 9 -88 -3z"/>
<path d="M8128 2883 c12 -2 30 -2 40 0 9 3 -1 5 -23 4 -22 0 -30 -2 -17 -4z"/>
<path d="M8452 2778 l2 -113 3 108 c2 59 8 107 13 107 5 0 11 -45 13 -100 l3
-100 0 102 c-1 90 -3 103 -18 106 -16 3 -18 -7 -16 -110z"/>
<path d="M8826 2881 c-4 -5 3 -7 14 -4 23 6 26 13 6 13 -8 0 -17 -4 -20 -9z"/>
<path d="M9010 2883 c8 -3 19 -11 23 -17 6 -7 7 -6 4 4 -2 8 -12 16 -23 17
-13 2 -15 1 -4 -4z"/>
<path d="M9176 2882 c-2 -4 4 -8 14 -8 10 0 16 4 14 8 -3 4 -9 8 -14 8 -5 0
-11 -4 -14 -8z"/>
<path d="M9574 2877 c-2 -7 -3 -71 -1 -143 l3 -129 2 137 c2 137 2 137 65 141
l62 3 -63 2 c-44 1 -64 -2 -68 -11z"/>
<path d="M9937 2884 c-9 -10 -9 -272 1 -277 4 -3 6 57 4 134 -2 90 1 139 7
139 6 0 11 -48 13 -122 3 -123 3 -123 68 -126 35 -2 68 -8 73 -15 6 -8 7 -8 4
3 -3 11 -21 16 -70 18 -66 3 -66 3 -69 124 -3 113 -10 142 -31 122z"/>
<path d="M10265 2877 c-3 -7 -4 -71 -2 -143 l3 -129 2 138 2 137 80 0 c47 0
80 -4 80 -10 0 -6 -30 -10 -71 -10 -70 0 -70 0 -67 -47 3 -48 3 -48 61 -51 31
-2 57 -7 57 -12 0 -5 -26 -10 -57 -12 -58 -3 -58 -3 -58 -53 0 -50 0 -50 70
-51 70 0 70 0 3 3 -68 4 -68 4 -68 48 0 44 0 44 58 47 43 2 57 7 57 18 0 11
-14 16 -57 18 -58 3 -58 3 -58 42 0 39 0 39 68 42 52 2 67 6 67 18 0 21 -163
28 -170 7z"/>
<path d="M10749 2853 c-34 -38 -34 -38 1 -5 20 17 42 32 50 32 9 0 3 -12 -16
-32 -29 -33 -29 -33 4 -4 36 34 40 46 14 46 -10 0 -34 -17 -53 -37z"/>
<path d="M11507 2883 c21 -4 23 -10 26 -104 3 -99 3 -99 3 3 -1 103 -1 103
-26 104 -21 1 -21 0 -3 -3z"/>
<path d="M11808 2883 c12 -2 32 -2 45 0 12 2 2 4 -23 4 -25 0 -35 -2 -22 -4z"/>
<path d="M12135 2878 c-3 -8 -4 -57 -2 -109 3 -94 3 -94 5 9 3 128 20 135 25
10 l3 -93 0 94 c-1 66 -5 96 -13 99 -7 2 -15 -3 -18 -10z"/>
<path d="M12332 2884 c14 -4 18 -21 21 -102 3 -97 3 -97 3 3 -1 92 -3 100 -21
102 -15 1 -16 1 -3 -3z"/>
<path d="M12520 2883 c8 -3 19 -11 23 -17 6 -7 7 -6 4 4 -2 8 -12 16 -23 17
-13 2 -15 1 -4 -4z"/>
<path d="M13267 2883 c-10 -9 -9 -271 1 -276 4 -3 6 57 4 133 -3 126 -1 139
15 143 14 4 14 5 2 6 -9 0 -19 -2 -22 -6z"/>
<path d="M13505 2881 c-4 -7 0 -8 10 -4 10 3 21 0 27 -8 8 -12 9 -11 5 1 -5
18 -33 25 -42 11z"/>
<path d="M13773 2883 c26 -2 67 -2 90 0 23 2 2 3 -48 3 -49 0 -68 -1 -42 -3z"/>
<path d="M14072 2748 l2 -143 3 139 c3 132 4 138 23 133 11 -3 18 -1 14 4 -3
5 -14 9 -25 9 -18 0 -19 -7 -17 -142z"/>
<path d="M14265 2878 c-8 -23 -10 -208 -2 -208 4 0 7 47 7 105 0 156 19 131
23 -30 l3 -135 -1 137 c0 100 -3 137 -12 141 -7 2 -15 -2 -18 -10z"/>
<path d="M14543 2883 c9 -2 25 -2 35 0 9 3 1 5 -18 5 -19 0 -27 -2 -17 -5z"/>
<path d="M14825 2877 c-3 -7 -4 -67 -2 -133 3 -119 3 -119 5 9 2 127 2 127 82
127 47 0 80 -4 80 -10 0 -6 -30 -10 -70 -10 -70 0 -70 0 -70 -49 0 -49 0 -49
64 -53 35 -1 62 0 59 5 -2 4 -29 7 -59 7 -54 0 -54 0 -54 40 0 39 0 39 68 42
52 2 67 6 67 18 0 21 -163 28 -170 7z"/>
<path d="M15180 2883 c8 -3 22 -11 30 -17 13 -10 13 -9 1 7 -7 9 -21 17 -30
16 -13 0 -14 -1 -1 -6z"/>
<path d="M16027 2883 c-4 -3 -7 -11 -7 -17 0 -7 3 -7 8 1 4 6 28 13 52 16 45
4 45 4 -1 5 -25 1 -49 -1 -52 -5z"/>
<path d="M16408 2883 c12 -2 30 -2 40 0 9 3 -1 5 -23 4 -22 0 -30 -2 -17 -4z"/>
<path d="M16725 2878 c-3 -8 -4 -57 -2 -109 3 -94 3 -94 5 9 3 128 20 135 25
10 l3 -93 0 94 c-1 66 -5 96 -13 99 -7 2 -15 -3 -18 -10z"/>
<path d="M16912 2833 c2 -58 2 -58 5 -5 6 86 22 59 26 -45 l3 -98 0 100 c-1
87 -3 100 -18 103 -16 3 -18 -4 -16 -55z"/>
<path d="M17112 2884 c9 -3 19 -13 22 -22 3 -12 4 -12 3 3 -1 12 -10 21 -22
22 -15 1 -15 0 -3 -3z"/>
<path d="M17292 2876 c7 -8 15 -12 17 -11 5 6 -10 25 -20 25 -5 0 -4 -6 3 -14z"/>
<path d="M17446 2882 c-2 -4 4 -8 14 -8 10 0 16 4 14 8 -3 4 -9 8 -14 8 -5 0
-11 -4 -14 -8z"/>
<path d="M17893 2883 c26 -2 67 -2 90 0 23 2 2 3 -48 3 -49 0 -68 -1 -42 -3z"/>
<path d="M18197 2883 c-10 -9 -9 -271 1 -276 4 -3 6 57 4 133 -3 139 -3 139
60 143 63 3 63 3 2 5 -33 1 -64 -1 -67 -5z"/>
<path d="M18564 2877 c-2 -7 -3 -71 -1 -143 l3 -129 2 137 2 137 88 4 87 3
-88 2 c-64 1 -89 -1 -93 -11z"/>
<path d="M14489 2863 c-13 -17 -13 -17 6 -3 11 8 22 16 24 17 2 2 0 3 -6 3 -6
0 -17 -8 -24 -17z"/>
<path d="M14601 2877 c2 -1 13 -9 24 -17 19 -14 19 -14 6 3 -7 9 -18 17 -24
17 -6 0 -8 -1 -6 -3z"/>
<path d="M16485 2868 c11 -6 27 -16 35 -22 9 -6 5 -1 -8 12 -13 12 -28 22 -35
22 -7 0 -3 -6 8 -12z"/>
<path d="M8632 2850 c0 -14 2 -19 5 -12 2 6 2 18 0 25 -3 6 -5 1 -5 -13z"/>
<path d="M16319 2843 c-24 -28 -24 -28 4 -4 15 14 27 26 27 28 0 8 -8 1 -31
-24z"/>
<path d="M7843 2795 c0 -38 2 -53 4 -32 2 20 2 52 0 70 -2 17 -4 1 -4 -38z"/>
<path d="M9604 2846 c-3 -7 -4 -35 -2 -62 3 -49 3 -49 43 -50 40 -1 40 -1 3 3
-38 4 -38 4 -38 58 0 54 0 54 48 58 47 3 47 3 -1 5 -33 1 -49 -2 -53 -12z"/>
<path d="M11477 2853 c20 -4 23 -11 26 -84 3 -79 3 -79 3 3 -1 81 -1 83 -26
84 -21 1 -21 0 -3 -3z"/>
<path d="M11754 2826 c-29 -29 -34 -40 -33 -77 2 -44 2 -44 8 4 9 61 37 89 98
98 48 6 48 6 5 8 -38 1 -49 -4 -78 -33z"/>
<path d="M12322 2835 c0 -16 2 -22 5 -12 2 9 2 23 0 30 -3 6 -5 -1 -5 -18z"/>
<path d="M13754 2846 c-3 -8 -4 -29 -2 -48 3 -33 3 -33 63 -34 60 0 60 0 3 3
-58 4 -58 4 -58 43 0 39 0 39 73 43 l72 3 -73 2 c-55 2 -74 -1 -78 -12z"/>
<path d="M14512 2848 c-7 -7 -12 -16 -12 -22 0 -5 6 -2 13 7 6 9 28 18 47 20
35 4 35 4 0 5 -20 1 -41 -3 -48 -10z"/>
<path d="M16358 2838 c-13 -13 -16 -16 -5 -8 10 8 39 17 65 21 47 6 47 6 5 8
-31 1 -48 -5 -65 -21z"/>
<path d="M17913 2853 c20 -2 54 -2 75 0 20 2 3 4 -38 4 -41 0 -58 -2 -37 -4z"/>
<path d="M18222 2798 c3 -63 3 -63 46 -64 42 -1 42 -1 2 3 -40 4 -40 4 -40 58
0 54 0 54 48 58 47 3 47 3 -6 5 -53 2 -53 2 -50 -60z"/>
<path d="M18594 2846 c-3 -8 -4 -23 -1 -33 3 -12 5 -9 6 9 1 27 3 27 74 31
l72 3 -73 2 c-55 2 -74 -1 -78 -12z"/>
<path d="M8221 2824 c13 -17 26 -30 28 -27 3 2 -8 16 -24 31 -28 27 -28 27 -4
-4z"/>
<path d="M13542 2733 c-2 -143 -21 -170 -24 -35 l-2 87 -3 -84 c-4 -84 6 -116
27 -95 7 7 9 57 7 130 l-3 119 -2 -122z"/>
<path d="M13724 2730 c0 -69 1 -97 3 -62 2 34 2 90 0 125 -2 34 -3 6 -3 -63z"/>
<path d="M14600 2847 c0 -15 29 -27 36 -15 4 7 4 10 -1 6 -4 -4 -14 -3 -22 3
-7 6 -13 9 -13 6z"/>
<path d="M16092 2830 c0 -14 2 -19 5 -12 2 6 2 18 0 25 -3 6 -5 1 -5 -13z"/>
<path d="M9003 2815 c-3 -9 -3 -18 -1 -21 3 -3 8 4 11 16 6 23 -1 27 -10 5z"/>
<path d="M9763 2795 c0 -22 2 -30 4 -17 2 12 2 30 0 40 -3 9 -5 -1 -4 -23z"/>
<path d="M17291 2800 c15 -45 24 -54 15 -15 -4 17 -12 34 -17 40 -5 5 -4 -6 2
-25z"/>
<path d="M9729 2792 c-3 -20 -2 -29 4 -23 5 5 7 19 5 32 -3 20 -5 19 -9 -9z"/>
<path d="M13291 2713 c-1 -59 0 -105 3 -102 7 6 10 198 4 205 -3 3 -6 -44 -7
-103z"/>
<path d="M13439 2758 c-17 -35 -37 -66 -43 -70 -8 -6 -7 -8 1 -8 7 0 29 32 48
70 19 39 33 70 30 70 -2 0 -19 -28 -36 -62z"/>
<path d="M13506 2805 c4 -8 8 -15 10 -15 2 0 4 7 4 15 0 8 -4 15 -10 15 -5 0
-7 -7 -4 -15z"/>
<path d="M14102 2713 l2 -108 3 103 c3 96 5 103 21 90 15 -12 16 -11 3 5 -26
33 -31 17 -29 -90z"/>
<path d="M18352 2800 c0 -14 2 -19 5 -12 2 6 2 18 0 25 -3 6 -5 1 -5 -13z"/>
<path d="M3425 2790 c10 -11 20 -20 23 -20 3 0 -3 9 -13 20 -10 11 -20 20 -23
20 -3 0 3 -9 13 -20z"/>
<path d="M11927 2789 c4 -13 8 -18 11 -10 2 7 -1 18 -6 23 -8 8 -9 4 -5 -13z"/>
<path d="M8283 2745 c0 -27 2 -38 4 -22 2 15 2 37 0 50 -2 12 -4 0 -4 -28z"/>
<path d="M10667 2765 c-15 -14 -24 -25 -19 -25 5 0 19 11 32 25 30 32 23 32
-13 0z"/>
<path d="M10720 2774 c-11 -12 -10 -18 5 -32 18 -16 18 -16 6 1 -11 14 -11 20
-1 32 7 8 10 15 7 15 -2 0 -10 -7 -17 -16z"/>
<path d="M11692 2770 c0 -14 2 -19 5 -12 2 6 2 18 0 25 -3 6 -5 1 -5 -13z"/>
<path d="M18377 2771 c-4 -17 -3 -21 5 -13 5 5 8 16 6 23 -3 8 -7 3 -11 -10z"/>
<path d="M8253 2745 c0 -22 2 -30 4 -17 2 12 2 30 0 40 -3 9 -5 -1 -4 -23z"/>
<path d="M8032 2750 c0 -14 2 -19 5 -12 2 6 2 18 0 25 -3 6 -5 1 -5 -13z"/>
<path d="M14550 2768 c3 -3 21 -10 40 -17 19 -6 30 -7 25 -2 -6 5 -23 13 -40
17 -16 4 -28 5 -25 2z"/>
<path d="M16312 2745 c0 -16 2 -22 5 -12 2 9 2 23 0 30 -3 6 -5 -1 -5 -18z"/>
<path d="M17908 2763 c17 -2 47 -2 65 0 17 2 3 4 -33 4 -36 0 -50 -2 -32 -4z"/>
<path d="M8002 2740 c0 -14 2 -19 5 -12 2 6 2 18 0 25 -3 6 -5 1 -5 -13z"/>
<path d="M18710 2752 c0 -8 -21 -13 -57 -14 -58 -2 -58 -2 -4 -5 50 -4 84 8
68 24 -4 3 -7 1 -7 -5z"/>
<path d="M9720 2729 c-19 -11 -28 -19 -19 -19 9 0 27 9 40 20 29 23 25 23 -21
-1z"/>
<path d="M13815 2741 c-60 -6 -60 -6 -61 -51 -1 -45 -1 -45 3 -2 4 42 4 42 58
42 30 0 57 5 60 10 3 6 5 9 3 8 -2 -1 -30 -4 -63 -7z"/>
<path d="M16912 2725 c0 -16 2 -22 5 -12 2 9 2 23 0 30 -3 6 -5 -1 -5 -18z"/>
<path d="M17241 2709 c-7 -22 -11 -43 -8 -45 2 -2 9 14 16 37 7 22 11 43 8 45
-2 2 -9 -14 -16 -37z"/>
<path d="M10664 2718 c-19 -23 -19 -23 3 -5 12 11 27 16 34 11 8 -4 10 -3 5 4
-10 17 -21 15 -42 -10z"/>
<path d="M11691 2719 c-1 -14 6 -34 15 -45 8 -10 12 -13 8 -5 -4 8 -11 28 -15
45 -6 29 -7 29 -8 5z"/>
<path d="M14852 2688 c3 -53 3 -53 73 -54 70 0 70 0 3 3 -68 4 -68 4 -68 48 0
44 0 44 58 48 57 3 57 3 -6 5 -63 2 -63 2 -60 -50z"/>
<path d="M16122 2715 c0 -16 2 -22 5 -12 2 9 2 23 0 30 -3 6 -5 -1 -5 -18z"/>
<path d="M17908 2733 c17 -2 47 -2 65 0 17 2 3 4 -33 4 -36 0 -50 -2 -32 -4z"/>
<path d="M14581 2727 c2 -1 13 -9 24 -17 19 -14 19 -14 6 3 -7 9 -18 17 -24
17 -6 0 -8 -1 -6 -3z"/>
<path d="M16092 2710 c0 -14 2 -19 5 -12 2 6 2 18 0 25 -3 6 -5 1 -5 -13z"/>
<path d="M18224 2706 c-3 -7 -4 -33 -1 -57 3 -43 4 -42 5 10 2 53 2 53 36 49
19 -2 32 0 30 4 -9 14 -64 9 -70 -6z"/>
<path d="M18593 2675 c0 -27 2 -38 4 -22 2 15 2 37 0 50 -2 12 -4 0 -4 -28z"/>
<path d="M3550 2706 c0 -3 9 -10 20 -16 11 -6 20 -8 20 -6 0 3 -9 10 -20 16
-11 6 -20 8 -20 6z"/>
<path d="M9603 2660 c0 -30 2 -43 4 -27 2 15 2 39 0 55 -2 15 -4 2 -4 -28z"/>
<path d="M13361 2690 c14 -31 19 -36 19 -24 0 6 -7 19 -16 30 -14 18 -14 18
-3 -6z"/>
<path d="M7842 2680 c0 -14 2 -19 5 -12 2 6 2 18 0 25 -3 6 -5 1 -5 -13z"/>
<path d="M11730 2693 c0 -5 10 -18 23 -29 22 -19 22 -19 2 6 -11 14 -21 27
-22 29 -2 2 -3 0 -3 -6z"/>
<path d="M17406 2674 c-4 -14 -5 -28 -3 -31 3 -2 8 8 11 23 4 14 5 28 3 31 -3
2 -8 -8 -11 -23z"/>
<path d="M11897 2665 c-15 -14 -24 -25 -19 -25 5 0 19 11 32 25 30 32 23 32
-13 0z"/>
<path d="M12296 2662 c-19 -27 -19 -27 5 -5 12 12 21 24 18 27 -2 2 -13 -8
-23 -22z"/>
<path d="M16494 2668 c-19 -23 -19 -23 4 -4 21 18 27 26 19 26 -2 0 -12 -10
-23 -22z"/>
<path d="M12170 2672 c0 -18 43 -42 75 -41 27 1 26 2 -9 9 -22 4 -45 16 -53
26 -7 10 -13 13 -13 6z"/>
<path d="M12780 2670 c0 -5 5 -10 10 -10 6 0 10 5 10 10 0 6 -4 10 -10 10 -5
0 -10 -4 -10 -10z"/>
<path d="M16330 2675 c0 -13 68 -45 95 -44 28 1 28 2 -7 8 -20 4 -48 15 -62
25 -14 9 -26 14 -26 11z"/>
<path d="M3620 2665 c0 -7 61 -37 66 -33 2 3 -12 12 -31 21 -19 9 -35 15 -35
12z"/>
<path d="M8239 2643 c-24 -28 -24 -28 4 -4 15 14 27 26 27 28 0 8 -8 1 -31
-24z"/>
<path d="M8509 2651 c13 -12 36 -21 51 -21 15 0 38 9 51 21 24 21 24 21 -1 5
-13 -9 -36 -16 -50 -16 -14 0 -37 7 -50 16 -25 16 -25 16 -1 -5z"/>
<path d="M14464 2659 c-3 -6 2 -18 12 -27 17 -16 17 -16 5 0 -7 9 -10 22 -6
28 3 5 4 10 1 10 -3 0 -8 -5 -12 -11z"/>
<path d="M16730 2661 c0 -9 49 -56 53 -50 1 2 -10 16 -25 31 -15 15 -28 23
-28 19z"/>
<path d="M8094 2646 c11 -9 36 -15 55 -15 36 2 36 2 -4 8 -22 4 -47 10 -55 15
-8 4 -6 0 4 -8z"/>
<path d="M11374 2649 c-3 -6 -1 -16 6 -22 10 -9 11 -9 5 2 -4 8 -2 17 6 22 9
6 10 9 2 9 -6 0 -15 -5 -19 -11z"/>
<path d="M14607 2653 c-4 -3 -24 -9 -44 -13 -36 -7 -36 -8 -7 -9 16 0 39 6 50
14 10 8 16 15 13 15 -3 0 -9 -3 -12 -7z"/>
<path d="M15591 2643 c7 -12 15 -20 18 -17 3 2 -3 12 -13 22 -17 16 -18 16 -5
-5z"/>
<path d="M7814 2628 c-19 -23 -19 -23 4 -4 12 11 22 21 22 23 0 8 -8 2 -26
-19z"/>
<path d="M10801 2633 c7 -12 15 -20 18 -17 3 2 -3 12 -13 22 -17 16 -18 16 -5
-5z"/>
<path d="M11417 2638 c2 -5 15 -8 28 -8 13 0 26 3 28 8 3 4 -10 7 -28 7 -18 0
-31 -3 -28 -7z"/>
<path d="M13388 2638 c5 -5 16 -8 23 -6 8 3 3 7 -10 11 -17 4 -21 3 -13 -5z"/>
<path d="M14621 2630 c-13 -11 -19 -20 -14 -20 6 0 18 9 28 20 23 25 17 25
-14 0z"/>
<path d="M16035 2640 c-30 -8 -30 -8 -3 -9 15 0 30 4 33 9 3 6 5 9 3 9 -2 -1
-16 -5 -33 -9z"/>
<path d="M16799 2637 c5 -5 21 -7 37 -5 27 3 26 4 -8 9 -22 3 -34 1 -29 -4z"/>
<path d="M18903 2634 c1 -13 -4 -18 -17 -17 -13 1 -15 -2 -7 -10 8 -8 16 -7
28 6 13 12 14 20 6 28 -8 8 -11 6 -10 -7z"/>
<path d="M7748 2633 c6 -2 18 -2 25 0 6 3 1 5 -13 5 -14 0 -19 -2 -12 -5z"/>
<path d="M11496 2625 c-11 -8 -15 -15 -9 -15 6 0 16 7 23 15 16 19 11 19 -14
0z"/>
<path d="M11813 2633 c9 -2 25 -2 35 0 9 3 1 5 -18 5 -19 0 -27 -2 -17 -5z"/>
<path d="M13780 2634 c60 -8 128 -8 123 -1 -2 4 -37 6 -76 6 -40 -1 -61 -3
-47 -5z"/>
<path d="M15983 2618 c11 -10 33 -17 51 -17 31 1 31 1 -6 8 -20 4 -43 12 -50
17 -8 5 -5 1 5 -8z"/>
<path d="M17945 2633 c38 -2 73 -9 78 -16 6 -8 7 -8 4 3 -3 12 -21 15 -78 16
-74 1 -74 1 -4 -3z"/>
<path d="M8077 2620 c6 -7 33 -14 60 -16 48 -3 48 -3 1 5 -26 5 -53 13 -60 17
-10 5 -10 4 -1 -6z"/>
<path d="M3730 2610 c8 -5 20 -10 25 -10 6 0 3 5 -5 10 -8 5 -19 10 -25 10 -5
0 -3 -5 5 -10z"/>
<path d="M8907 2608 c2 -5 10 -8 18 -8 8 0 16 3 18 8 3 4 -5 7 -18 7 -13 0
-21 -3 -18 -7z"/>
<path d="M11835 2610 c-40 -7 -40 -7 -5 -8 19 -1 42 3 50 8 16 11 14 11 -45 0z"/>
<path d="M14511 2609 c13 -8 88 -14 78 -5 -2 2 -24 6 -48 9 -29 4 -40 2 -30
-4z"/>
<path d="M7743 2603 c9 -2 25 -2 35 0 9 3 1 5 -18 5 -19 0 -27 -2 -17 -5z"/>
<path d="M8543 2603 c9 -2 25 -2 35 0 9 3 1 5 -18 5 -19 0 -27 -2 -17 -5z"/>
<path d="M11433 2603 c9 -2 23 -2 30 0 6 3 -1 5 -18 5 -16 0 -22 -2 -12 -5z"/>
<path d="M12228 2603 c12 -2 30 -2 40 0 9 3 -1 5 -23 4 -22 0 -30 -2 -17 -4z"/>
<path d="M13843 2603 c9 -2 25 -2 35 0 9 3 1 5 -18 5 -19 0 -27 -2 -17 -5z"/>
<path d="M16408 2603 c12 -2 30 -2 40 0 9 3 -1 5 -23 4 -22 0 -30 -2 -17 -4z"/>
<path d="M16818 2603 c12 -2 30 -2 40 0 9 3 -1 5 -23 4 -22 0 -30 -2 -17 -4z"/>
<path d="M3810 2580 c8 -5 20 -10 25 -10 6 0 3 5 -5 10 -8 5 -19 10 -25 10 -5
0 -3 -5 5 -10z"/></g>
</svg>
